<?xml version="1.0" encoding="UTF-8" standalone="no"?>
<svg
   xmlns:dc="http://purl.org/dc/elements/1.1/"
   xmlns:cc="http://creativecommons.org/ns#"
   xmlns:rdf="http://www.w3.org/1999/02/22-rdf-syntax-ns#"
   xmlns:svg="http://www.w3.org/2000/svg"
   xmlns="http://www.w3.org/2000/svg"
   viewBox="0 0 680 680"
   height="704"
   width="704"
   xml:space="preserve"
   id="svg2"
   version="1.1"><metadata
     id="metadata8"><rdf:RDF><cc:Work
         rdf:about=""><dc:format>image/svg+xml</dc:format><dc:type
           rdf:resource="http://purl.org/dc/dcmitype/StillImage" /></cc:Work></rdf:RDF></metadata><defs
     id="defs6" /><g
     transform="matrix(1.35,0,0,-1.35,-24,680)"
     id="g10"><g
       transform="scale(0.4)"
       id="g12"><path
         id="path14"
         style="fill:#1b1817;fill-opacity:1;fill-rule:evenodd;stroke:none"
         d="M 656.09,1255.55 C 322.621,1255.55 52.2109,985.191 52.2109,651.668 52.2109,384.859 225.238,158.5 465.18,78.6484 c 30.179,-5.5898 41.261,13.1016 41.261,29.0506 0,14.403 -0.562,61.969 -0.82,112.43 -168,-36.527 -203.449,71.25 -203.449,71.25 -27.473,69.801 -67.051,88.363 -67.051,88.363 -54.793,37.481 4.129,36.711 4.129,36.711 60.641,-4.258 92.57,-62.238 92.57,-62.238 53.86,-92.317 141.27,-65.625 175.731,-50.195 5.418,39.023 21.07,65.675 38.34,80.753 -134.129,15.262 -275.129,67.051 -275.129,298.438 0,65.926 23.59,119.801 62.218,162.09 -6.269,15.215 -26.941,76.629 5.852,159.809 0,0 50.707,16.23 166.109,-61.903 48.168,13.383 99.829,20.09 151.149,20.324 51.32,-0.234 103.019,-6.941 151.281,-20.324 115.258,78.133 165.899,61.903 165.899,61.903 32.87,-83.18 12.191,-144.594 5.921,-159.809 38.719,-42.289 62.149,-96.164 62.149,-162.09 0,-231.945 -141.27,-283.008 -275.738,-297.961 21.66,-18.738 40.957,-55.488 40.957,-111.832 0,-80.797 -0.7,-145.828 -0.7,-165.719 0,-16.0701 10.871,-34.8982 41.481,-28.9685 239.81,79.9415 412.62,306.2185 412.62,572.9375 0,333.523 -270.37,603.882 -603.87,603.882" /><path
         id="path16"
         style="fill:#1b1817;fill-opacity:1;fill-rule:nonzero;stroke:none"
         d="m 280.93,388.512 c -1.328,-3.008 -6.051,-3.907 -10.348,-1.844 -4.383,1.973 -6.844,6.062 -5.422,9.07 1.301,3.086 6.031,3.946 10.399,1.887 4.39,-1.973 6.89,-6.105 5.371,-9.113 v 0" /><path
         id="path18"
         style="fill:#1b1817;fill-opacity:1;fill-rule:nonzero;stroke:none"
         d="m 305.391,361.227 c -2.879,-2.664 -8.512,-1.426 -12.332,2.793 -3.95,4.21 -4.688,9.843 -1.77,12.55 2.973,2.664 8.43,1.414 12.391,-2.793 3.949,-4.257 4.718,-9.843 1.711,-12.55 v 0" /><path
         id="path20"
         style="fill:#1b1817;fill-opacity:1;fill-rule:nonzero;stroke:none"
         d="m 329.199,326.453 c -3.699,-2.578 -9.75,-0.168 -13.488,5.203 -3.699,5.371 -3.699,11.817 0.078,14.395 3.75,2.578 9.711,0.254 13.5,-5.067 3.691,-5.461 3.691,-11.906 -0.09,-14.531 v 0" /><path
         id="path22"
         style="fill:#1b1817;fill-opacity:1;fill-rule:nonzero;stroke:none"
         d="m 361.82,292.852 c -3.308,-3.653 -10.359,-2.672 -15.519,2.308 -5.281,4.871 -6.75,11.781 -3.43,15.43 3.348,3.66 10.438,2.629 15.641,-2.309 5.238,-4.863 6.84,-11.82 3.308,-15.429 v 0" /><path
         id="path24"
         style="fill:#1b1817;fill-opacity:1;fill-rule:nonzero;stroke:none"
         d="m 406.82,273.34 c -1.461,-4.731 -8.25,-6.879 -15.09,-4.871 -6.832,2.07 -11.3,7.609 -9.921,12.39 1.421,4.762 8.242,7 15.132,4.852 6.821,-2.063 11.297,-7.563 9.879,-12.371 v 0" /><path
         id="path26"
         style="fill:#1b1817;fill-opacity:1;fill-rule:nonzero;stroke:none"
         d="m 456.238,269.719 c 0.172,-4.981 -5.629,-9.11 -12.808,-9.199 -7.219,-0.161 -13.059,3.871 -13.141,8.769 0,5.031 5.672,9.121 12.891,9.242 7.179,0.141 13.058,-3.863 13.058,-8.812 v 0" /><path
         id="path28"
         style="fill:#1b1817;fill-opacity:1;fill-rule:nonzero;stroke:none"
         d="m 502.23,277.551 c 0.86,-4.86 -4.128,-9.852 -11.261,-11.18 -7.008,-1.281 -13.5,1.719 -14.391,6.539 -0.867,4.981 4.211,9.969 11.211,11.262 7.141,1.238 13.531,-1.684 14.441,-6.621 v 0" /></g></g></svg>